<svg width="36" height="36" viewBox="0 0 36 36" fill="none" xmlns="http://www.w3.org/2000/svg">
<circle cx="18" cy="18" r="18" fill="#5C9CE6"/>
<path d="M19.6667 26.3333H16.3333C13.1906 26.3333 11.6193 26.3333 10.643 25.357C9.66666 24.3807 9.66666 22.8094 9.66666 19.6667V18C9.66666 14.8573 9.66666 13.2859 10.643 12.3096C11.6193 11.3333 13.1906 11.3333 16.3333 11.3333H19.6667C22.8094 11.3333 24.3807 11.3333 25.357 12.3096C26.3333 13.2859 26.3333 14.8573 26.3333 18V19.6667C26.3333 22.8094 26.3333 24.3807 25.357 25.357C24.8127 25.9013 24.0834 26.1422 23 26.2488" stroke="white" stroke-width="1.5" stroke-linecap="round"/>
<path d="M13.8333 11.3333V10.0833" stroke="white" stroke-width="1.5" stroke-linecap="round"/>
<path d="M22.1667 11.3333V10.0833" stroke="white" stroke-width="1.5" stroke-linecap="round"/>
<path d="M25.9167 15.5H21.8542H16.9583M9.66666 15.5H12.8958" stroke="white" stroke-width="1.5" stroke-linecap="round"/>
<path d="M23 22.1667C23 22.6269 22.6269 23 22.1667 23C21.7064 23 21.3333 22.6269 21.3333 22.1667C21.3333 21.7064 21.7064 21.3333 22.1667 21.3333C22.6269 21.3333 23 21.7064 23 22.1667Z" fill="white"/>
<path d="M23 18.8333C23 19.2936 22.6269 19.6667 22.1667 19.6667C21.7064 19.6667 21.3333 19.2936 21.3333 18.8333C21.3333 18.3731 21.7064 18 22.1667 18C22.6269 18 23 18.3731 23 18.8333Z" fill="white"/>
<path d="M18.8333 22.1667C18.8333 22.6269 18.4602 23 18 23C17.5398 23 17.1667 22.6269 17.1667 22.1667C17.1667 21.7064 17.5398 21.3333 18 21.3333C18.4602 21.3333 18.8333 21.7064 18.8333 22.1667Z" fill="white"/>
<path d="M18.8333 18.8333C18.8333 19.2936 18.4602 19.6667 18 19.6667C17.5398 19.6667 17.1667 19.2936 17.1667 18.8333C17.1667 18.3731 17.5398 18 18 18C18.4602 18 18.8333 18.3731 18.8333 18.8333Z" fill="white"/>
<path d="M14.6667 22.1667C14.6667 22.6269 14.2936 23 13.8333 23C13.3731 23 13 22.6269 13 22.1667C13 21.7064 13.3731 21.3333 13.8333 21.3333C14.2936 21.3333 14.6667 21.7064 14.6667 22.1667Z" fill="white"/>
<path d="M14.6667 18.8333C14.6667 19.2936 14.2936 19.6667 13.8333 19.6667C13.3731 19.6667 13 19.2936 13 18.8333C13 18.3731 13.3731 18 13.8333 18C14.2936 18 14.6667 18.3731 14.6667 18.8333Z" fill="white"/>
</svg>
