<svg width="36" height="36" viewBox="0 0 36 36" fill="none" xmlns="http://www.w3.org/2000/svg">
<circle cx="18" cy="18" r="18" fill="#E57373"/>
<path d="M12.7922 13.5949C13.9072 12.0007 15.0115 10.3629 15.7006 8.76006C15.9927 8.08047 16.8931 7.76113 17.5193 8.20461C21.3119 10.8904 27 16.0823 27 20.9162C27 22.1435 26.7759 23.1809 26.4036 24.0535M10.6488 16.7325C9.69 18.2531 9 19.6749 9 20.9162C9 24.1655 11.5263 26.4685 13.5916 27.5799C14.0648 27.8345 14.5254 27.3033 14.2771 26.8504C13.7304 25.8532 13.2 24.5654 13.2 23.5308C13.2 22.0965 14.3755 20.9439 15.2152 20.2048C15.4305 20.0152 15.768 20.0182 15.9547 20.2324C16.3013 20.6301 16.648 21.1335 16.9946 21.5411C17.1981 21.7803 17.5771 21.7591 17.7557 21.5033C18.8651 19.914 19.1223 17.8862 19.182 16.3705C19.2 15.913 19.7759 15.6883 20.1061 16.0279C21.5504 17.5135 23.4 19.922 23.4 21.962C23.4 23.8612 22.2551 25.8801 21.2646 27.2033C20.9743 27.5912 21.2933 28.1172 21.7786 27.9768C22.3576 27.8093 22.9799 27.5581 23.5859 27.2033" stroke="white" stroke-width="1.5" stroke-linecap="round"/>
</svg>
