<svg width="36" height="36" viewBox="0 0 36 36" fill="none" xmlns="http://www.w3.org/2000/svg">
<circle cx="18" cy="18" r="18" fill="#FFB74D"/>
<path d="M17.8437 13.9132V17.8437L20.3003 20.3003" stroke="white" stroke-width="1.5" stroke-linecap="round" stroke-linejoin="round"/>
<path d="M11.6042 11.6042L11.0739 11.0739L11.0739 11.0739L11.6042 11.6042ZM10.3378 12.8706L9.58785 12.8744C9.58992 13.2856 9.92281 13.6185 10.3341 13.6206L10.3378 12.8706ZM12.8796 13.6334C13.2938 13.6355 13.6313 13.3014 13.6334 12.8871C13.6355 12.4729 13.3014 12.1355 12.8872 12.1334L12.8796 13.6334ZM11.075 10.3213C11.073 9.90707 10.7355 9.57298 10.3213 9.57506C9.90707 9.57714 9.57298 9.91461 9.57506 10.3288L11.075 10.3213ZM9.75 18C9.75 17.5857 9.41421 17.25 9 17.25C8.58579 17.25 8.25 17.5857 8.25 18H9.75ZM22.8755 26.4451C23.234 26.2377 23.3565 25.7789 23.1491 25.4203C22.9417 25.0618 22.4829 24.9393 22.1244 25.1467L22.8755 26.4451ZM25.1467 22.1244C24.9393 22.4829 25.0618 22.9417 25.4203 23.1491C25.7789 23.3565 26.2377 23.234 26.4451 22.8755L25.1467 22.1244ZM11.1403 11.0712C10.846 11.3627 10.8436 11.8375 11.135 12.1319C11.4265 12.4262 11.9013 12.4286 12.1957 12.1372L11.1403 11.0712ZM24.8622 11.1378C21.0421 7.31767 14.8688 7.27898 11.0739 11.0739L12.1345 12.1345C15.3336 8.93545 20.5571 8.95404 23.8016 12.1985L24.8622 11.1378ZM11.0739 11.0739L9.80751 12.3403L10.8682 13.4009L12.1345 12.1345L11.0739 11.0739ZM10.3341 13.6206L12.8796 13.6334L12.8872 12.1334L10.3416 12.1206L10.3341 13.6206ZM11.0878 12.8668L11.075 10.3213L9.57506 10.3288L9.58785 12.8744L11.0878 12.8668ZM18 9.75C22.5563 9.75 26.2499 13.4436 26.2499 18H27.7499C27.7499 12.6152 23.3847 8.25 18 8.25V9.75ZM18 26.2499C13.4436 26.2499 9.75 22.5563 9.75 18H8.25C8.25 23.3847 12.6152 27.7499 18 27.7499V26.2499ZM22.1244 25.1467C20.9117 25.8482 19.5039 26.2499 18 26.2499V27.7499C19.7746 27.7499 21.4406 27.2751 22.8755 26.4451L22.1244 25.1467ZM26.2499 18C26.2499 19.5039 25.8482 20.9117 25.1467 22.1244L26.4451 22.8755C27.2751 21.4406 27.7499 19.7746 27.7499 18H26.2499ZM12.1957 12.1372C13.687 10.6606 15.7364 9.75 18 9.75V8.25C15.3254 8.25 12.9011 9.3279 11.1403 11.0712L12.1957 12.1372Z" fill="white"/>
</svg>
